Coordinates
version=1
nRows=20
nColumns=38
inDegrees=no

Units are S.I. units (second, meters, Newtons, ...)
If the header above contains a line with 'inDegrees', this indicates whether rotational values are in degrees (yes) or radians (no).

endheader
time	pelvis_tilt	pelvis_list	pelvis_rotation	pelvis_tx	pelvis_ty	pelvis_tz	hip_flexion_r	hip_adduction_r	hip_rotation_r	knee_angle_r	ankle_angle_r	subtalar_angle_r	mtp_angle_r	hip_flexion_l	hip_adduction_l	hip_rotation_l	knee_angle_l	ankle_angle_l	subtalar_angle_l	mtp_angle_l	lumbar_extension	lumbar_bending	lumbar_rotation	arm_flex_r	arm_add_r	arm_rot_r	elbow_flex_r	pro_sup_r	wrist_flex_r	wrist_dev_r	arm_flex_l	arm_add_l	arm_rot_l	elbow_flex_l	pro_sup_l	wrist_flex_l	wrist_dev_l
0	3.07548	1.47748	1.64649	0.717239	-0.472801	0.954931	0.00254228	-0.0143729	-0.221467	0.0576185	0.0352114	0	0	-0.0466511	0.00991077	-0.155362	0.0206637	0.0647696	0	0	0.124785	0.00717872	0.0362871	-0.177401	-0.074636	-0.253369	0.422357	1.5708	0	0	-0.0509515	-0.167136	0.642736	0.478496	1.03374	0	0
0.01	3.07886	1.47696	1.64341	0.717053	-0.473045	0.954891	0.0026135	-0.0137501	-0.220957	0.0571858	0.0350588	0	0	-0.0461989	0.00927765	-0.155929	0.0208134	0.065238	0	0	0.125536	0.00730313	0.036067	-0.177217	-0.0746419	-0.252497	0.42167	1.5708	0	0	-0.0513193	-0.167396	0.643067	0.478686	1.03338	0	0
0.02	3.07979	1.47703	1.643	0.716924	-0.47321	0.954884	0.00226457	-0.0134352	-0.221307	0.0571376	0.0353534	0	0	-0.0461565	0.00896983	-0.155621	0.0212731	0.0657093	0	0	0.125263	0.00726436	0.0358085	-0.176926	-0.0746065	-0.252167	0.421422	1.5708	0	0	-0.050893	-0.167473	0.642992	0.478671	1.03446	0	0
0.03	3.08283	1.47755	1.6407	0.716803	-0.473445	0.954919	-0.00164321	-0.0119483	-0.21635	0.0509622	0.0319741	0	0	-0.0469666	0.00845623	-0.155064	0.0211439	0.0658789	0	0	0.124481	0.00749521	0.0353733	-0.176869	-0.0745078	-0.252446	0.421481	1.5708	0	0	-0.0503125	-0.167249	0.641764	0.478141	1.03977	0	0
0.04	3.07885	1.47706	1.64438	0.716625	-0.473675	0.954837	0.000926981	-0.0130282	-0.220328	0.0558089	0.0352336	0	0	-0.0471248	0.00885297	-0.154913	0.0204047	0.0655796	0	0	0.124884	0.00721259	0.035958	-0.177134	-0.0743589	-0.25282	0.421615	1.5708	0	0	-0.0506806	-0.16721	0.641688	0.477846	1.03938	0	0
0.05	3.07935	1.47692	1.64371	0.716463	-0.473968	0.954792	0.000855483	-0.0127459	-0.220884	0.0559724	0.0358876	0	0	-0.0479844	0.00874428	-0.154127	0.0191198	0.0650644	0	0	0.125241	0.00730178	0.0361832	-0.177356	-0.074412	-0.252558	0.421306	1.5708	0	0	-0.051102	-0.167089	0.641998	0.477551	1.03701	0	0
0.06	3.07961	1.47686	1.64371	0.716322	-0.474138	0.954776	0.000578955	-0.0125151	-0.221023	0.0557982	0.0359965	0	0	-0.0481874	0.00856299	-0.153652	0.0189412	0.0651167	0	0	0.125185	0.00722302	0.0358593	-0.177161	-0.0744158	-0.252056	0.420951	1.5708	0	0	-0.0510254	-0.167077	0.64246	0.477324	1.03545	0	0
0.07	3.07902	1.47645	1.64471	0.716167	-0.474254	0.954744	0.000784441	-0.0124115	-0.221264	0.0557547	0.0361974	0	0	-0.0476075	0.00833741	-0.153799	0.0193543	0.0654976	0	0	0.125311	0.00701814	0.0356616	-0.177145	-0.0741648	-0.252389	0.420874	1.5708	0	0	-0.0507478	-0.167125	0.642879	0.477099	1.03491	0	0
0.08	3.07818	1.47611	1.64584	0.716007	-0.474403	0.954696	0.000930457	-0.0123344	-0.221497	0.0557514	0.0365115	0	0	-0.0471859	0.0081258	-0.154133	0.0197249	0.0658197	0	0	0.125574	0.00678335	0.0355701	-0.17723	-0.0739178	-0.252654	0.420681	1.5708	0	0	-0.0505299	-0.167236	0.643501	0.476913	1.03447	0	0
0.09	3.07894	1.47596	1.64517	0.715839	-0.474591	0.954647	0.00067515	-0.0120195	-0.221394	0.0553406	0.036642	0	0	-0.0471014	0.00784149	-0.154492	0.0199333	0.0660873	0	0	0.125787	0.00671172	0.0352826	-0.177256	-0.0738219	-0.252371	0.420391	1.5708	0	0	-0.0504499	-0.167337	0.643724	0.477	1.03514	0	0
0.1	3.08036	1.4759	1.64374	0.715655	-0.474803	0.954608	0.000164214	-0.0115732	-0.221154	0.054639	0.0366205	0	0	-0.0473014	0.00750486	-0.154546	0.0198876	0.0663631	0	0	0.126016	0.00671325	0.0351419	-0.177645	-0.0736634	-0.252331	0.420587	1.5708	0	0	-0.0504029	-0.167254	0.642937	0.476996	1.0383	0	0
0.11	3.13836	1.48332	1.57954	0.713508	-0.475712	0.955163	-0.0110284	-0.00156741	-0.213716	0.0480304	0.0322318	0	0	-0.0630192	-0.000112197	-0.14702	0.0084923	0.0620879	0	0	0.118668	0.0113072	0.0403784	-0.177145	-0.0710274	-0.253392	0.419822	1.5708	0	0	-0.0515034	-0.170748	0.643672	0.480257	1.03705	0	0
0.12	3.1389	1.48302	1.57903	0.713332	-0.475811	0.955156	-0.0108805	-0.00124848	-0.214001	0.0479597	0.0323388	0	0	-0.0626568	-0.000357068	-0.146761	0.00877463	0.0621817	0	0	0.118663	0.0113983	0.04026	-0.177041	-0.0710588	-0.253101	0.419496	1.5708	0	0	-0.0516274	-0.170686	0.643913	0.480233	1.03499	0	0
0.13	3.08356	1.47569	1.64055	0.71514	-0.475174	0.954614	-0.000637719	-0.0104354	-0.221121	0.0535135	0.0364	0	0	-0.0475035	0.0067084	-0.153475	0.0197387	0.0661349	0	0	0.125464	0.00720802	0.0346229	-0.177622	-0.0736739	-0.252161	0.420472	1.5708	0	0	-0.0507137	-0.167069	0.643938	0.476755	1.03335	0	0
0.14	3.08364	1.47518	1.64043	0.71497	-0.475317	0.954566	-0.000274816	-0.0102648	-0.221342	0.0535092	0.0367525	0	0	-0.0468114	0.00653404	-0.153956	0.0202854	0.0665459	0	0	0.125981	0.00723226	0.0344265	-0.177842	-0.0737226	-0.251681	0.420504	1.5708	0	0	-0.0508737	-0.166869	0.643616	0.476292	1.03285	0	0
0.15	3.08433	1.47504	1.63956	0.71477	-0.475485	0.954539	-0.000652979	-0.00983467	-0.220779	0.0528006	0.0366336	0	0	-0.0468366	0.00619483	-0.154398	0.020405	0.066877	0	0	0.126086	0.00730733	0.0345201	-0.17816	-0.0737223	-0.251411	0.420736	1.5708	0	0	-0.050955	-0.166754	0.643061	0.476143	1.03303	0	0
0.16	3.08486	1.47506	1.63883	0.714569	-0.47565	0.95452	-0.00125454	-0.00942807	-0.220241	0.0519301	0.0364307	0	0	-0.0471065	0.00590957	-0.154559	0.0203101	0.067158	0	0	0.126006	0.00729687	0.0346518	-0.178446	-0.0737202	-0.251083	0.420859	1.5708	0	0	-0.050816	-0.16664	0.641967	0.476423	1.03552	0	0
0.17	3.08381	1.4753	1.63967	0.714383	-0.475765	0.954514	-0.00187725	-0.00927808	-0.220112	0.0514794	0.0364884	0	0	-0.0475543	0.00583761	-0.154215	0.0202428	0.0672321	0	0	0.125508	0.00713321	0.034709	-0.178534	-0.0737613	-0.25052	0.421015	1.5708	0	0	-0.0502393	-0.166271	0.639483	0.476574	1.04183	0	0
0.18	3.08286	1.47554	1.64006	0.714185	-0.475918	0.9545	-0.00245816	-0.00907156	-0.219868	0.0510921	0.0364979	0	0	-0.0483206	0.00581325	-0.153765	0.0197425	0.0669271	0	0	0.125164	0.00721737	0.0351631	-0.178874	-0.0738555	-0.250359	0.421343	1.5708	0	0	-0.0500804	-0.16568	0.637361	0.475512	1.04749	0	0
0.19	3.0834	1.47575	1.63932	0.713996	-0.476013	0.954502	-0.00288102	-0.00868819	-0.219775	0.0509086	0.0365403	0	0	-0.0485689	0.00547901	-0.153764	0.0200465	0.0670764	0	0	0.12475	0.00745412	0.0354547	-0.179054	-0.0738782	-0.250723	0.421497	1.5708	0	0	-0.0497411	-0.165263	0.636442	0.474605	1.05068	0	0
